<svg width="103" height="108" viewBox="0 0 103 108" fill="none" xmlns="http://www.w3.org/2000/svg">
<path d="M32.6826 27.6924C31.019 27.6924 29.4236 28.3853 28.2473 29.6187C27.071 30.8521 26.4102 32.525 26.4102 34.2693V73.7308C26.4102 75.4752 27.071 77.148 28.2473 78.3814C29.4236 79.6148 31.019 80.3078 32.6826 80.3078H70.3172C71.9808 80.3078 73.5762 79.6148 74.7525 78.3814C75.9288 77.148 76.5896 75.4752 76.5896 73.7308V34.2693C76.5896 32.525 75.9288 30.8521 74.7525 29.6187C73.5762 28.3853 71.9808 27.6924 70.3172 27.6924H32.6826Z" fill="url(#paint0_linear_1061_1264)"/>
<path d="M35.4062 3.375C35.4062 2.47989 35.0671 1.62145 34.4635 0.988515C33.8599 0.355579 33.0412 0 32.1875 0C31.3338 0 30.5151 0.355579 29.9115 0.988515C29.3079 1.62145 28.9688 2.47989 28.9688 3.375V13.5C24.7004 13.5 20.6069 15.2779 17.5888 18.4426C14.5706 21.6073 12.875 25.8995 12.875 30.375H3.21875C2.36508 30.375 1.54638 30.7306 0.94275 31.3635C0.339117 31.9965 0 32.8549 0 33.75C0 34.6451 0.339117 35.5035 0.94275 36.1365C1.54638 36.7694 2.36508 37.125 3.21875 37.125H12.875V43.875H3.21875C2.36508 43.875 1.54638 44.2306 0.94275 44.8635C0.339117 45.4965 0 46.3549 0 47.25C0 48.1451 0.339117 49.0035 0.94275 49.6365C1.54638 50.2694 2.36508 50.625 3.21875 50.625H12.875V57.375H3.21875C2.36508 57.375 1.54638 57.7306 0.94275 58.3635C0.339117 58.9964 0 59.8549 0 60.75C0 61.6451 0.339117 62.5036 0.94275 63.1365C1.54638 63.7694 2.36508 64.125 3.21875 64.125H12.875V70.875H3.21875C2.36508 70.875 1.54638 71.2306 0.94275 71.8635C0.339117 72.4964 0 73.3549 0 74.25C0 75.1451 0.339117 76.0036 0.94275 76.6365C1.54638 77.2694 2.36508 77.625 3.21875 77.625H12.875C12.875 82.1005 14.5706 86.3928 17.5888 89.5574C20.6069 92.7221 24.7004 94.5 28.9688 94.5V104.625C28.9688 105.52 29.3079 106.379 29.9115 107.011C30.5151 107.644 31.3338 108 32.1875 108C33.0412 108 33.8599 107.644 34.4635 107.011C35.0671 106.379 35.4062 105.52 35.4062 104.625V94.5H41.8438V104.625C41.8438 105.52 42.1829 106.379 42.7865 107.011C43.3901 107.644 44.2088 108 45.0625 108C45.9162 108 46.7349 107.644 47.3385 107.011C47.9421 106.379 48.2812 105.52 48.2812 104.625V94.5H54.7188V104.625C54.7188 105.52 55.0579 106.379 55.6615 107.011C56.2651 107.644 57.0838 108 57.9375 108C58.7912 108 59.6099 107.644 60.2135 107.011C60.8171 106.379 61.1562 105.52 61.1562 104.625V94.5H67.5938V104.625C67.5938 105.52 67.9329 106.379 68.5365 107.011C69.1401 107.644 69.9588 108 70.8125 108C71.6662 108 72.4849 107.644 73.0885 107.011C73.6921 106.379 74.0312 105.52 74.0312 104.625V94.5C78.2996 94.5 82.3931 92.7221 85.4112 89.5574C88.4294 86.3928 90.125 82.1005 90.125 77.625H99.7812C100.635 77.625 101.454 77.2694 102.057 76.6365C102.661 76.0036 103 75.1451 103 74.25C103 73.3549 102.661 72.4964 102.057 71.8635C101.454 71.2306 100.635 70.875 99.7812 70.875H90.125V64.125H99.7812C100.635 64.125 101.454 63.7694 102.057 63.1365C102.661 62.5036 103 61.6451 103 60.75C103 59.8549 102.661 58.9964 102.057 58.3635C101.454 57.7306 100.635 57.375 99.7812 57.375H90.125V50.625H99.7812C100.635 50.625 101.454 50.2694 102.057 49.6365C102.661 49.0035 103 48.1451 103 47.25C103 46.3549 102.661 45.4965 102.057 44.8635C101.454 44.2306 100.635 43.875 99.7812 43.875H90.125V37.125H99.7812C100.635 37.125 101.454 36.7694 102.057 36.1365C102.661 35.5035 103 34.6451 103 33.75C103 32.8549 102.661 31.9965 102.057 31.3635C101.454 30.7306 100.635 30.375 99.7812 30.375H90.125C90.125 25.8995 88.4294 21.6073 85.4112 18.4426C82.3931 15.2779 78.2996 13.5 74.0312 13.5V3.375C74.0312 2.47989 73.6921 1.62145 73.0885 0.988515C72.4849 0.355579 71.6662 0 70.8125 0C69.9588 0 69.1401 0.355579 68.5365 0.988515C67.9329 1.62145 67.5938 2.47989 67.5938 3.375V13.5H61.1562V3.375C61.1562 2.47989 60.8171 1.62145 60.2135 0.988515C59.6099 0.355579 58.7912 0 57.9375 0C57.0838 0 56.2651 0.355579 55.6615 0.988515C55.0579 1.62145 54.7188 2.47989 54.7188 3.375V13.5H48.2812V3.375C48.2812 2.47989 47.9421 1.62145 47.3385 0.988515C46.7349 0.355579 45.9162 0 45.0625 0C44.2088 0 43.3901 0.355579 42.7865 0.988515C42.1829 1.62145 41.8438 2.47989 41.8438 3.375V13.5H35.4062V3.375ZM41.8438 33.75H61.1562C63.7172 33.75 66.1734 34.8167 67.9843 36.7155C69.7952 38.6143 70.8125 41.1897 70.8125 43.875V64.125C70.8125 66.8103 69.7952 69.3857 67.9843 71.2845C66.1734 73.1833 63.7172 74.25 61.1562 74.25H41.8438C39.2828 74.25 36.8266 73.1833 35.0157 71.2845C33.2048 69.3857 32.1875 66.8103 32.1875 64.125V43.875C32.1875 41.1897 33.2048 38.6143 35.0157 36.7155C36.8266 34.8167 39.2828 33.75 41.8438 33.75Z" fill="url(#paint1_linear_1061_1264)"/>
<rect x="32.182" y="24.6893" width="38.7576" height="13.1323" rx="1.15077" stroke="black" stroke-width="2.30154"/>
<rect x="36.8305" y="28.7509" width="10.8684" height="5.00923" rx="1.15077" stroke="black" stroke-width="2.30154"/>
<rect x="55.8223" y="29.2246" width="1.5494" height="4.06154" rx="0.774701" fill="black"/>
<rect x="60.4707" y="29.2246" width="1.5494" height="4.06154" rx="0.774701" fill="black"/>
<rect x="65.1191" y="29.2246" width="1.5494" height="4.06154" rx="0.774701" fill="black"/>
<rect x="32.182" y="39.3109" width="38.7576" height="13.1323" rx="1.15077" stroke="black" stroke-width="2.30154"/>
<rect x="36.8305" y="43.3724" width="10.8684" height="5.00923" rx="1.15077" stroke="black" stroke-width="2.30154"/>
<rect x="55.8223" y="43.8462" width="1.5494" height="4.06154" rx="0.774701" fill="black"/>
<rect x="60.4707" y="43.8462" width="1.5494" height="4.06154" rx="0.774701" fill="black"/>
<rect x="65.1191" y="43.8462" width="1.5494" height="4.06154" rx="0.774701" fill="black"/>
<rect x="32.182" y="54.7445" width="38.7576" height="13.1323" rx="1.15077" stroke="black" stroke-width="2.30154"/>
<rect x="36.8305" y="58.806" width="10.8684" height="5.00923" rx="1.15077" stroke="black" stroke-width="2.30154"/>
<rect x="55.8223" y="59.2798" width="1.5494" height="4.06154" rx="0.774701" fill="black"/>
<rect x="50.3994" y="69.0273" width="2.3241" height="5.68615" fill="black"/>
<rect x="46.5254" y="74.7139" width="9.29641" height="9.74769" rx="2.30154" fill="black"/>
<rect x="48.4629" y="76.3384" width="5.42291" height="5.68615" rx="1.34256" fill="#B1B1B1"/>
<rect x="60.4707" y="59.2798" width="1.5494" height="4.06154" rx="0.774701" fill="black"/>
<rect x="65.1191" y="59.2798" width="1.5494" height="4.06154" rx="0.774701" fill="black"/>
<path d="M55.8223 77.9629H62.4185C63.0541 77.9629 63.5693 78.4781 63.5693 79.1137V79.249C63.5693 79.8846 63.0541 80.3998 62.4185 80.3998H55.8223V77.9629Z" fill="black"/>
<path d="M38.7783 79.1137C38.7783 78.4781 39.2935 77.9629 39.9291 77.9629H46.5253V80.3998H39.9291C39.2935 80.3998 38.7783 79.8846 38.7783 79.249V79.1137Z" fill="black"/>
<path d="M65.1191 76.9136C66.0594 76.9136 66.868 77.721 66.8682 78.7749C66.8682 79.829 66.0595 80.6371 65.1191 80.6372C64.1787 80.6372 63.3701 79.829 63.3701 78.7749C63.3703 77.721 64.1789 76.9136 65.1191 76.9136Z" stroke="black" stroke-width="1.15077"/>
<path d="M37.2295 76.9136C38.1697 76.9136 38.9783 77.721 38.9785 78.7749C38.9785 79.829 38.1698 80.6371 37.2295 80.6372C36.2891 80.6372 35.4805 79.829 35.4805 78.7749C35.4807 77.721 36.2892 76.9136 37.2295 76.9136Z" stroke="black" stroke-width="1.15077"/>
<defs>
<linearGradient id="paint0_linear_1061_1264" x1="51.4999" y1="27.6924" x2="51.4999" y2="80.3078" gradientUnits="userSpaceOnUse">
<stop stop-color="#6094EA"/>
<stop offset="1" stop-color="#F02FC2"/>
</linearGradient>
<linearGradient id="paint1_linear_1061_1264" x1="51.5" y1="0" x2="51.5" y2="108" gradientUnits="userSpaceOnUse">
<stop stop-color="#6094EA"/>
<stop offset="1" stop-color="#F02FC2"/>
</linearGradient>
</defs>
</svg>
