<svg width="103" height="108" viewBox="0 0 103 108" fill="none" xmlns="http://www.w3.org/2000/svg">
<rect width="103" height="108" rx="10.3817" fill="url(#paint0_linear_1061_1313)"/>
<path d="M27.9516 40.4219H25.8763L29.6549 29.6886H32.0552L35.8391 40.4219H33.7638L30.897 31.8898H30.8132L27.9516 40.4219ZM28.0198 36.2135H33.6799V37.7752H28.0198V36.2135ZM40.6843 32.3719V33.8394H36.0566V32.3719H40.6843ZM37.1991 30.4433H39.0963V38.0006C39.0963 38.2557 39.1348 38.4513 39.2116 38.5876C39.292 38.7203 39.3968 38.8112 39.5261 38.8601C39.6553 38.909 39.7986 38.9335 39.9558 38.9335C40.0746 38.9335 40.1829 38.9247 40.2808 38.9073C40.3821 38.8898 40.4589 38.8741 40.5114 38.8601L40.831 40.3433C40.7297 40.3782 40.5847 40.4166 40.3961 40.4586C40.2109 40.5005 39.9838 40.5249 39.7147 40.5319C39.2396 40.5459 38.8116 40.4743 38.4307 40.3171C38.0499 40.1563 37.7477 39.9083 37.5241 39.5729C37.304 39.2374 37.1956 38.8182 37.1991 38.3151V30.4433ZM45.6959 40.5791C44.9097 40.5791 44.2284 40.4062 43.6519 40.0603C43.0754 39.7144 42.6282 39.2305 42.3103 38.6085C41.9958 37.9866 41.8386 37.2599 41.8386 36.4283C41.8386 35.5968 41.9958 34.8683 42.3103 34.2429C42.6282 33.6175 43.0754 33.1318 43.6519 32.7859C44.2284 32.4401 44.9097 32.2671 45.6959 32.2671C46.482 32.2671 47.1633 32.4401 47.7398 32.7859C48.3163 33.1318 48.7618 33.6175 49.0762 34.2429C49.3942 34.8683 49.5531 35.5968 49.5531 36.4283C49.5531 37.2599 49.3942 37.9866 49.0762 38.6085C48.7618 39.2305 48.3163 39.7144 47.7398 40.0603C47.1633 40.4062 46.482 40.5791 45.6959 40.5791ZM45.7064 39.0593C46.1326 39.0593 46.489 38.9422 46.7755 38.7081C47.062 38.4705 47.2751 38.1526 47.4149 37.7543C47.5581 37.356 47.6297 36.9122 47.6297 36.4231C47.6297 35.9305 47.5581 35.485 47.4149 35.0867C47.2751 34.6849 47.062 34.3652 46.7755 34.1276C46.489 33.89 46.1326 33.7712 45.7064 33.7712C45.2696 33.7712 44.9062 33.89 44.6163 34.1276C44.3298 34.3652 44.1149 34.6849 43.9716 35.0867C43.8319 35.485 43.762 35.9305 43.762 36.4231C43.762 36.9122 43.8319 37.356 43.9716 37.7543C44.1149 38.1526 44.3298 38.4705 44.6163 38.7081C44.9062 38.9422 45.2696 39.0593 45.7064 39.0593ZM51.1634 40.4219V32.3719H52.9767V33.7398H53.0711C53.2388 33.2786 53.5165 32.9187 53.9044 32.6602C54.2922 32.3981 54.7551 32.2671 55.2932 32.2671C55.8382 32.2671 56.2977 32.3999 56.6715 32.6654C57.0489 32.9275 57.3144 33.2856 57.4681 33.7398H57.552C57.7302 33.2926 58.0307 32.9362 58.4534 32.6707C58.8797 32.4016 59.3845 32.2671 59.968 32.2671C60.7087 32.2671 61.3132 32.5012 61.7814 32.9694C62.2495 33.4376 62.4836 34.1206 62.4836 35.0186V40.4219H60.5812V35.312C60.5812 34.8124 60.4484 34.4473 60.1829 34.2167C59.9174 33.9826 59.5924 33.8656 59.2081 33.8656C58.7504 33.8656 58.3923 34.0088 58.1337 34.2953C57.8787 34.5783 57.7511 34.9469 57.7511 35.4011V40.4219H55.8906V35.2334C55.8906 34.8177 55.7649 34.4857 55.5133 34.2377C55.2652 33.9896 54.9403 33.8656 54.5385 33.8656C54.266 33.8656 54.0179 33.9354 53.7943 34.0752C53.5707 34.2115 53.3925 34.4054 53.2597 34.6569C53.127 34.905 53.0606 35.195 53.0606 35.5269V40.4219H51.1634ZM64.4083 40.4219V32.3719H66.3055V40.4219H64.4083ZM65.3622 31.2294C65.0617 31.2294 64.8032 31.1298 64.5865 30.9307C64.3699 30.728 64.2616 30.4852 64.2616 30.2022C64.2616 29.9157 64.3699 29.6729 64.5865 29.4737C64.8032 29.2711 65.0617 29.1698 65.3622 29.1698C65.6661 29.1698 65.9247 29.2711 66.1378 29.4737C66.3544 29.6729 66.4628 29.9157 66.4628 30.2022C66.4628 30.4852 66.3544 30.728 66.1378 30.9307C65.9247 31.1298 65.6661 31.2294 65.3622 31.2294ZM71.7678 40.5791C70.9642 40.5791 70.2742 40.4027 69.6977 40.0498C69.1247 39.6969 68.6827 39.2095 68.3717 38.5876C68.0643 37.9622 67.9105 37.2424 67.9105 36.4283C67.9105 35.6108 68.0678 34.8893 68.3822 34.2639C68.6967 33.635 69.1404 33.1458 69.7134 32.7964C70.2899 32.4435 70.9712 32.2671 71.7573 32.2671C72.4107 32.2671 72.9889 32.3876 73.4921 32.6287C73.9987 32.8663 74.4022 33.2035 74.7027 33.6402C75.0032 34.0735 75.1744 34.5801 75.2163 35.1601H73.403C73.3296 34.7722 73.1549 34.449 72.8789 34.1905C72.6063 33.9285 72.2412 33.7974 71.7835 33.7974C71.3957 33.7974 71.0551 33.9023 70.7616 34.1119C70.4681 34.318 70.2392 34.615 70.075 35.0028C69.9143 35.3907 69.8339 35.8553 69.8339 36.3969C69.8339 36.9454 69.9143 37.4171 70.075 37.8119C70.2357 38.2032 70.4611 38.5055 70.7511 38.7186C71.0446 38.9282 71.3887 39.033 71.7835 39.033C72.063 39.033 72.3129 38.9806 72.533 38.8758C72.7566 38.7675 72.9435 38.612 73.0937 38.4094C73.244 38.2067 73.3471 37.9604 73.403 37.6704H75.2163C75.1709 38.2399 75.0032 38.7448 74.7132 39.185C74.4232 39.6218 74.0284 39.9642 73.5287 40.2122C73.0291 40.4568 72.4421 40.5791 71.7678 40.5791Z" fill="black"/>
<path d="M51.0196 60.8156C51.0196 63.1408 50.584 65.1322 49.713 66.7901C48.8489 68.4409 47.6688 69.7053 46.1725 70.5834C44.6833 71.4615 42.9939 71.9005 41.1043 71.9005C39.2146 71.9005 37.5217 71.4615 36.0254 70.5834C34.5362 69.6983 33.3561 68.4303 32.485 66.7795C31.621 65.1217 31.1889 63.1337 31.1889 60.8156C31.1889 58.4904 31.621 56.5025 32.485 54.8517C33.3561 53.1938 34.5362 51.9259 36.0254 51.0478C37.5217 50.1697 39.2146 49.7307 41.1043 49.7307C42.9939 49.7307 44.6833 50.1697 46.1725 51.0478C47.6688 51.9259 48.8489 53.1938 49.713 54.8517C50.584 56.5025 51.0196 58.4904 51.0196 60.8156ZM47.0893 60.8156C47.0893 59.1788 46.8329 57.7985 46.3201 56.6746C45.8143 55.5436 45.1118 54.6901 44.2127 54.1141C43.3135 53.531 42.2774 53.2395 41.1043 53.2395C39.9311 53.2395 38.895 53.531 37.9958 54.1141C37.0967 54.6901 36.3907 55.5436 35.8779 56.6746C35.3721 57.7985 35.1192 59.1788 35.1192 60.8156C35.1192 62.4523 35.3721 63.8362 35.8779 64.9672C36.3907 66.0911 37.0967 66.9446 37.9958 67.5277C38.895 68.1037 39.9311 68.3917 41.1043 68.3917C42.2774 68.3917 43.3135 68.1037 44.2127 67.5277C45.1118 66.9446 45.8143 66.0911 46.3201 64.9672C46.8329 63.8362 47.0893 62.4523 47.0893 60.8156ZM66.4431 55.958C66.3447 55.0378 65.9303 54.3213 65.1997 53.8085C64.4762 53.2957 63.5349 53.0393 62.3758 53.0393C61.5609 53.0393 60.862 53.1622 60.2789 53.4081C59.6959 53.654 59.2498 53.9876 58.9407 54.4091C58.6317 54.8306 58.4736 55.3118 58.4666 55.8527C58.4666 56.3022 58.5684 56.6921 58.7721 57.0223C58.9829 57.3524 59.2674 57.6334 59.6256 57.8652C59.9839 58.09 60.3808 58.2797 60.8163 58.4342C61.2519 58.5888 61.6909 58.7187 62.1334 58.8241L64.1565 59.3299C64.9714 59.5195 65.7547 59.7759 66.5063 60.0991C67.265 60.4222 67.9428 60.8296 68.5399 61.3214C69.1441 61.8131 69.6217 62.4067 69.973 63.1021C70.3242 63.7976 70.4998 64.6124 70.4998 65.5467C70.4998 66.8111 70.1767 67.9245 69.5304 68.8869C68.8841 69.8423 67.9499 70.5904 66.7276 71.1313C65.5123 71.6652 64.0406 71.9321 62.3126 71.9321C60.6337 71.9321 59.1761 71.6722 57.9397 71.1524C56.7104 70.6326 55.748 69.8739 55.0526 68.8764C54.3642 67.8789 53.9919 66.6636 53.9357 65.2306H57.7817C57.8379 65.9822 58.0697 66.6074 58.4771 67.1062C58.8845 67.6049 59.4149 67.9772 60.0682 68.2231C60.7285 68.469 61.4661 68.5919 62.281 68.5919C63.1309 68.5919 63.8756 68.4654 64.5148 68.2126C65.1611 67.9526 65.6668 67.5944 66.0321 67.1378C66.3974 66.6742 66.5836 66.1333 66.5906 65.5151C66.5836 64.9531 66.4185 64.4895 66.0954 64.1242C65.7722 63.7519 65.3191 63.4428 64.7361 63.197C64.1601 62.9441 63.4857 62.7193 62.713 62.5226L60.2579 61.8904C58.4806 61.4338 57.0757 60.7418 56.0431 59.8146C55.0175 58.8803 54.5047 57.6404 54.5047 56.095C54.5047 54.8236 54.8489 53.7101 55.5373 52.7548C56.2327 51.7994 57.1775 51.0583 58.3717 50.5315C59.5659 49.9976 60.9182 49.7307 62.4285 49.7307C63.9599 49.7307 65.3016 49.9976 66.4536 50.5315C67.6127 51.0583 68.5224 51.7924 69.1827 52.7337C69.843 53.668 70.1837 54.7428 70.2048 55.958H66.4431Z" fill="black"/>
<defs>
<linearGradient id="paint0_linear_1061_1313" x1="51.5" y1="0" x2="51.5" y2="108" gradientUnits="userSpaceOnUse">
<stop stop-color="#6094EA"/>
<stop offset="1" stop-color="#F02FC2"/>
</linearGradient>
</defs>
</svg>
