<svg width="31" height="32" viewBox="0 0 31 32" fill="none" xmlns="http://www.w3.org/2000/svg">
<g opacity="0.3">
<circle cx="15.5" cy="16.4541" r="15.5" fill="#707070"/>
<path d="M11.492 21.0615C10.965 21.0615 10.4943 20.9707 10.0799 20.7891C9.66799 20.6075 9.34181 20.3555 9.10133 20.0331C8.86341 19.7082 8.7355 19.3322 8.71759 18.9049H9.92253C9.93788 19.1377 10.0159 19.3398 10.1566 19.5112C10.2999 19.6801 10.4866 19.8106 10.7169 19.9027C10.9471 19.9948 11.2029 20.0408 11.4844 20.0408C11.7939 20.0408 12.0676 19.9871 12.3056 19.8796C12.546 19.7722 12.7341 19.6225 12.8697 19.4307C13.0052 19.2362 13.073 19.0124 13.073 18.7591C13.073 18.4956 13.0052 18.2641 12.8697 18.0645C12.7366 17.8624 12.5409 17.7038 12.2825 17.5887C12.0267 17.4736 11.7172 17.416 11.3539 17.416H10.69V16.449H11.3539C11.6455 16.449 11.9014 16.3966 12.1214 16.2917C12.3439 16.1868 12.5179 16.041 12.6432 15.8542C12.7686 15.6649 12.8313 15.4436 12.8313 15.1903C12.8313 14.9473 12.7763 14.7362 12.6663 14.5572C12.5588 14.3755 12.4053 14.2335 12.2058 14.1312C12.0088 14.0289 11.776 13.9777 11.5074 13.9777C11.2516 13.9777 11.0124 14.025 10.7898 14.1197C10.5698 14.2118 10.3907 14.3448 10.2526 14.5188C10.1144 14.6902 10.0402 14.8961 10.03 15.1366H8.8826C8.89539 14.7119 9.02075 14.3384 9.25867 14.0161C9.49914 13.6938 9.81637 13.4418 10.2103 13.2601C10.6043 13.0785 11.0418 12.9877 11.5227 12.9877C12.0267 12.9877 12.4616 13.0862 12.8274 13.2832C13.1958 13.4776 13.4798 13.7372 13.6793 14.0621C13.8814 14.387 13.9812 14.7426 13.9787 15.1289C13.9812 15.569 13.8584 15.9425 13.6103 16.2495C13.3647 16.5564 13.0372 16.7624 12.6279 16.8673V16.9287C13.1498 17.008 13.554 17.2152 13.8405 17.5503C14.1296 17.8855 14.2729 18.3012 14.2703 18.7975C14.2729 19.2298 14.1526 19.6174 13.9096 19.9602C13.6691 20.303 13.3404 20.5729 12.9234 20.7699C12.5064 20.9643 12.0293 21.0615 11.492 21.0615ZM18.4569 21.0846C17.8506 21.082 17.3325 20.9221 16.9028 20.6049C16.473 20.2877 16.1442 19.8259 15.9165 19.2196C15.6889 18.6133 15.575 17.8829 15.575 17.0284C15.575 16.1765 15.6889 15.4487 15.9165 14.845C16.1468 14.2412 16.4768 13.7807 16.9066 13.4635C17.3389 13.1463 17.8557 12.9877 18.4569 12.9877C19.0581 12.9877 19.5736 13.1476 20.0034 13.4673C20.4332 13.7846 20.7619 14.2451 20.9896 14.8488C21.2198 15.45 21.3349 16.1765 21.3349 17.0284C21.3349 17.8855 21.2211 18.6171 20.9934 19.2234C20.7657 19.8272 20.437 20.289 20.0072 20.6087C19.5774 20.926 19.0606 21.0846 18.4569 21.0846ZM18.4569 20.06C18.989 20.06 19.4047 19.8003 19.7041 19.281C20.0059 18.7617 20.1569 18.0108 20.1569 17.0284C20.1569 16.3761 20.0878 15.8248 19.9496 15.3745C19.8141 14.9217 19.6183 14.5789 19.3625 14.3461C19.1093 14.1107 18.8074 13.9931 18.4569 13.9931C17.9273 13.9931 17.5116 14.254 17.2097 14.7759C16.9079 15.2978 16.7557 16.0486 16.7531 17.0284C16.7531 17.6834 16.8209 18.2372 16.9565 18.69C17.0946 19.1403 17.2903 19.4818 17.5436 19.7146C17.7969 19.9449 18.1013 20.06 18.4569 20.06Z" fill="black"/>
<path d="M25.1493 9.42823L24.4213 9.55716C24.3909 9.46404 24.3425 9.3754 24.2763 9.29123C24.2118 9.20706 24.1241 9.13812 24.013 9.08439C23.902 9.03067 23.7632 9.00381 23.5967 9.00381C23.3692 9.00381 23.1794 9.05485 23.0272 9.15692C22.875 9.25721 22.7989 9.38704 22.7989 9.54642C22.7989 9.68431 22.8499 9.79534 22.952 9.8795C23.0541 9.96367 23.2188 10.0326 23.4463 10.0863L24.1017 10.2368C24.4813 10.3245 24.7643 10.4597 24.9505 10.6424C25.1368 10.825 25.2299 11.0623 25.2299 11.3542C25.2299 11.6013 25.1582 11.8216 25.015 12.015C24.8735 12.2066 24.6756 12.3571 24.4213 12.4663C24.1688 12.5755 23.876 12.6301 23.543 12.6301C23.0809 12.6301 22.704 12.5317 22.4121 12.3347C22.1202 12.1359 21.9411 11.8538 21.8748 11.4885L22.6511 11.3703C22.6995 11.5727 22.7989 11.7258 22.9493 11.8297C23.0997 11.9317 23.2958 11.9828 23.5376 11.9828C23.8008 11.9828 24.0112 11.9282 24.1688 11.8189C24.3264 11.7079 24.4052 11.5727 24.4052 11.4133C24.4052 11.2844 24.3569 11.176 24.2602 11.0883C24.1653 11.0005 24.0193 10.9343 23.8223 10.8895L23.1239 10.7364C22.7389 10.6486 22.4542 10.509 22.2697 10.3173C22.087 10.1257 21.9957 9.88308 21.9957 9.5894C21.9957 9.34585 22.0638 9.13275 22.1999 8.95009C22.336 8.76743 22.524 8.62506 22.764 8.52298C23.0039 8.41912 23.2788 8.36719 23.5886 8.36719C24.0345 8.36719 24.3855 8.46389 24.6416 8.65729C24.8977 8.84891 25.0669 9.10588 25.1493 9.42823Z" fill="black"/>
</g>
</svg>
