<svg width="31" height="31" viewBox="0 0 31 31" fill="none" xmlns="http://www.w3.org/2000/svg">
<circle cx="15.5" cy="15.5" r="15.5" fill="#60CFFF"/>
<path d="M11.492 20.1074C10.965 20.1074 10.4943 20.0166 10.0799 19.835C9.66799 19.6534 9.34181 19.4014 9.10133 19.079C8.86341 18.7541 8.7355 18.3781 8.71759 17.9508H9.92253C9.93788 18.1836 10.0159 18.3857 10.1566 18.5571C10.2999 18.726 10.4866 18.8565 10.7169 18.9486C10.9471 19.0407 11.2029 19.0867 11.4844 19.0867C11.7939 19.0867 12.0676 19.033 12.3056 18.9255C12.546 18.8181 12.7341 18.6684 12.8697 18.4766C13.0052 18.2821 13.073 18.0583 13.073 17.805C13.073 17.5415 13.0052 17.31 12.8697 17.1104C12.7366 16.9083 12.5409 16.7497 12.2825 16.6346C12.0267 16.5195 11.7172 16.4619 11.3539 16.4619H10.69V15.4949H11.3539C11.6455 15.4949 11.9014 15.4425 12.1214 15.3376C12.3439 15.2327 12.5179 15.0869 12.6432 14.9001C12.7686 14.7108 12.8313 14.4895 12.8313 14.2362C12.8313 13.9932 12.7763 13.7821 12.6663 13.6031C12.5588 13.4214 12.4053 13.2794 12.2058 13.1771C12.0088 13.0748 11.776 13.0236 11.5074 13.0236C11.2516 13.0236 11.0124 13.0709 10.7898 13.1656C10.5698 13.2577 10.3907 13.3907 10.2526 13.5647C10.1144 13.7361 10.0402 13.942 10.03 14.1825H8.8826C8.89539 13.7578 9.02075 13.3843 9.25867 13.062C9.49914 12.7397 9.81637 12.4877 10.2103 12.306C10.6043 12.1244 11.0418 12.0336 11.5227 12.0336C12.0267 12.0336 12.4616 12.1321 12.8274 12.329C13.1958 12.5235 13.4798 12.7831 13.6793 13.108C13.8814 13.4329 13.9812 13.7885 13.9787 14.1748C13.9812 14.6149 13.8584 14.9884 13.6103 15.2954C13.3647 15.6023 13.0372 15.8083 12.6279 15.9132V15.9746C13.1498 16.0539 13.554 16.2611 13.8405 16.5962C14.1296 16.9314 14.2729 17.3471 14.2703 17.8434C14.2729 18.2757 14.1526 18.6633 13.9096 19.0061C13.6691 19.3489 13.3404 19.6188 12.9234 19.8158C12.5064 20.0102 12.0293 20.1074 11.492 20.1074ZM18.4569 20.1305C17.8506 20.1279 17.3325 19.968 16.9028 19.6508C16.473 19.3336 16.1442 18.8718 15.9165 18.2655C15.6889 17.6592 15.575 16.9288 15.575 16.0743C15.575 15.2224 15.6889 14.4946 15.9165 13.8909C16.1468 13.2871 16.4768 12.8266 16.9066 12.5094C17.3389 12.1922 17.8557 12.0336 18.4569 12.0336C19.0581 12.0336 19.5736 12.1935 20.0034 12.5132C20.4332 12.8305 20.7619 13.291 20.9896 13.8947C21.2198 14.4959 21.3349 15.2224 21.3349 16.0743C21.3349 16.9314 21.2211 17.663 20.9934 18.2693C20.7657 18.8731 20.437 19.3349 20.0072 19.6546C19.5774 19.9719 19.0606 20.1305 18.4569 20.1305ZM18.4569 19.1059C18.989 19.1059 19.4047 18.8462 19.7041 18.3269C20.0059 17.8076 20.1569 17.0567 20.1569 16.0743C20.1569 15.422 20.0878 14.8707 19.9496 14.4204C19.8141 13.9676 19.6183 13.6248 19.3625 13.392C19.1093 13.1566 18.8074 13.039 18.4569 13.039C17.9273 13.039 17.5116 13.2999 17.2097 13.8218C16.9079 14.3437 16.7557 15.0945 16.7531 16.0743C16.7531 16.7293 16.8209 17.2831 16.9565 17.7359C17.0946 18.1862 17.2903 18.5277 17.5436 18.7605C17.7969 18.9908 18.1013 19.1059 18.4569 19.1059Z" fill="#3C3C3C"/>
<path d="M25.1493 8.47412L24.4213 8.60306C24.3909 8.50994 24.3425 8.4213 24.2763 8.33713C24.2118 8.25296 24.1241 8.18402 24.013 8.13029C23.902 8.07657 23.7632 8.04971 23.5967 8.04971C23.3692 8.04971 23.1794 8.10074 23.0272 8.20282C22.875 8.3031 22.7989 8.43294 22.7989 8.59232C22.7989 8.73021 22.8499 8.84123 22.952 8.9254C23.0541 9.00957 23.2188 9.07851 23.4463 9.13224L24.1017 9.28266C24.4813 9.37041 24.7643 9.50562 24.9505 9.68827C25.1368 9.87093 25.2299 10.1082 25.2299 10.4001C25.2299 10.6472 25.1582 10.8675 25.015 11.0609C24.8735 11.2525 24.6756 11.403 24.4213 11.5122C24.1688 11.6214 23.876 11.676 23.543 11.676C23.0809 11.676 22.704 11.5776 22.4121 11.3806C22.1202 11.1818 21.9411 10.8997 21.8748 10.5344L22.6511 10.4162C22.6995 10.6186 22.7989 10.7717 22.9493 10.8756C23.0997 10.9776 23.2958 11.0287 23.5376 11.0287C23.8008 11.0287 24.0112 10.9741 24.1688 10.8648C24.3264 10.7538 24.4052 10.6186 24.4052 10.4592C24.4052 10.3303 24.3569 10.2219 24.2602 10.1342C24.1653 10.0464 24.0193 9.98017 23.8223 9.9354L23.1239 9.78229C22.7389 9.69454 22.4542 9.55486 22.2697 9.36325C22.087 9.17163 21.9957 8.92898 21.9957 8.63529C21.9957 8.39175 22.0638 8.17864 22.1999 7.99598C22.336 7.81332 22.524 7.67096 22.764 7.56888C23.0039 7.46502 23.2788 7.41308 23.5886 7.41308C24.0345 7.41308 24.3855 7.50979 24.6416 7.70319C24.8977 7.8948 25.0669 8.15178 25.1493 8.47412Z" fill="#3C3C3C"/>
</svg>
