<svg width="32" height="32" viewBox="0 0 32 32" fill="none" xmlns="http://www.w3.org/2000/svg">
<circle cx="16.3672" cy="16.1802" r="15.5" fill="#D9D9D9"/>
<path d="M9.66026 21.0137V20.1541L12.3196 17.3988C12.6035 17.0995 12.8376 16.8373 13.0218 16.6122C13.2086 16.3845 13.348 16.1683 13.4401 15.9637C13.5322 15.759 13.5782 15.5415 13.5782 15.3113C13.5782 15.0504 13.5168 14.8252 13.394 14.6359C13.2713 14.4441 13.1037 14.297 12.8913 14.1946C12.679 14.0897 12.4398 14.0373 12.1738 14.0373C11.8923 14.0373 11.6468 14.0949 11.437 14.21C11.2272 14.3251 11.066 14.4875 10.9535 14.6973C10.8409 14.9071 10.7846 15.1527 10.7846 15.4341H9.65259C9.65259 14.9557 9.76259 14.5374 9.9826 14.1793C10.2026 13.8211 10.5045 13.5435 10.8882 13.3466C11.272 13.147 11.7082 13.0472 12.1968 13.0472C12.6905 13.0472 13.1254 13.1457 13.5015 13.3427C13.8801 13.5371 14.1756 13.8032 14.3879 14.1409C14.6003 14.476 14.7064 14.8547 14.7064 15.2768C14.7064 15.5684 14.6514 15.8537 14.5414 16.1325C14.434 16.4114 14.2459 16.7222 13.9773 17.065C13.7087 17.4052 13.3352 17.8184 12.8568 18.3045L11.295 19.9392V19.9968H14.8331V21.0137H9.66026ZM19.0312 21.1211C18.6807 21.116 18.3353 21.052 17.9951 20.9292C17.6574 20.8065 17.3504 20.6018 17.0741 20.3153C16.7978 20.0287 16.5765 19.6437 16.4102 19.1602C16.2465 18.6767 16.1646 18.0729 16.1646 17.349C16.1646 16.6633 16.2324 16.0545 16.368 15.5224C16.5062 14.9902 16.7044 14.5413 16.9628 14.1754C17.2212 13.807 17.5333 13.5269 17.8991 13.335C18.265 13.1432 18.6756 13.0472 19.131 13.0472C19.5991 13.0472 20.0148 13.1393 20.3781 13.3235C20.7414 13.5077 21.0356 13.7623 21.2607 14.0872C21.4884 14.4121 21.6329 14.7817 21.6943 15.1962H20.5239C20.4446 14.8687 20.2873 14.6014 20.0519 14.3942C19.8166 14.1869 19.5096 14.0833 19.131 14.0833C18.5553 14.0833 18.1064 14.334 17.784 14.8355C17.4642 15.3369 17.3031 16.034 17.3005 16.9268H17.3581C17.4937 16.7043 17.66 16.515 17.8569 16.3589C18.0565 16.2003 18.2791 16.0788 18.5246 15.9944C18.7728 15.9074 19.0337 15.8639 19.3075 15.8639C19.7628 15.8639 20.1747 15.9752 20.5431 16.1977C20.9141 16.4178 21.2095 16.7222 21.4296 17.111C21.6496 17.4999 21.7596 17.945 21.7596 18.4465C21.7596 18.9479 21.6457 19.402 21.418 19.8087C21.1929 20.2155 20.8757 20.5378 20.4664 20.7758C20.057 21.0111 19.5786 21.1262 19.0312 21.1211ZM19.0273 20.1234C19.3292 20.1234 19.5991 20.0492 19.837 19.9008C20.075 19.7524 20.263 19.5529 20.4011 19.3022C20.5393 19.0515 20.6083 18.7714 20.6083 18.4618C20.6083 18.1599 20.5406 17.8849 20.405 17.6368C20.2719 17.3886 20.0877 17.1916 19.8524 17.0458C19.6196 16.9 19.3535 16.8271 19.0542 16.8271C18.8265 16.8271 18.6155 16.8706 18.421 16.9575C18.2292 17.0445 18.0603 17.1648 17.9145 17.3183C17.7687 17.4718 17.6536 17.6483 17.5691 17.8478C17.4873 18.0448 17.4463 18.2533 17.4463 18.4733C17.4463 18.7675 17.5141 19.04 17.6497 19.2907C17.7879 19.5414 17.9759 19.7435 18.2138 19.897C18.4543 20.0479 18.7255 20.1234 19.0273 20.1234Z" fill="#3C3C3C"/>
<path d="M24.0175 9.1543L23.2895 9.28324C23.2591 9.19011 23.2107 9.10147 23.1444 9.0173C23.08 8.93314 22.9922 8.86419 22.8812 8.81047C22.7702 8.75675 22.6314 8.72988 22.4648 8.72988C22.2374 8.72988 22.0476 8.78092 21.8954 8.883C21.7432 8.98328 21.667 9.11311 21.667 9.27249C21.667 9.41038 21.7181 9.52141 21.8202 9.60558C21.9222 9.68974 22.087 9.75869 22.3144 9.81241L22.9698 9.96284C23.3495 10.0506 23.6324 10.1858 23.8187 10.3685C24.0049 10.5511 24.098 10.7884 24.098 11.0803C24.098 11.3274 24.0264 11.5477 23.8831 11.7411C23.7417 11.9327 23.5438 12.0831 23.2895 12.1924C23.037 12.3016 22.7442 12.3562 22.4111 12.3562C21.9491 12.3562 21.5721 12.2577 21.2802 12.0607C20.9883 11.862 20.8093 11.5799 20.743 11.2146L21.5193 11.0964C21.5677 11.2988 21.667 11.4519 21.8175 11.5557C21.9679 11.6578 22.164 11.7089 22.4057 11.7089C22.669 11.7089 22.8794 11.6542 23.037 11.545C23.1946 11.434 23.2734 11.2988 23.2734 11.1394C23.2734 11.0104 23.225 10.9021 23.1283 10.8144C23.0334 10.7266 22.8875 10.6603 22.6905 10.6156L21.9921 10.4625C21.6071 10.3747 21.3223 10.235 21.1379 10.0434C20.9552 9.85181 20.8639 9.60916 20.8639 9.31547C20.8639 9.07192 20.9319 8.85882 21.068 8.67616C21.2041 8.4935 21.3922 8.35113 21.6321 8.24906C21.8721 8.14519 22.147 8.09326 22.4568 8.09326C22.9027 8.09326 23.2537 8.18996 23.5098 8.38337C23.7658 8.57498 23.9351 8.83196 24.0175 9.1543Z" fill="#3C3C3C"/>
</svg>
