<svg width="31" height="31" viewBox="0 0 31 31" fill="none" xmlns="http://www.w3.org/2000/svg">
<circle cx="15.5" cy="15.5" r="15.5" fill="#60CFFF"/>
<path d="M8.79308 20.3335V19.4739L11.4524 16.7187C11.7364 16.4194 11.9704 16.1571 12.1546 15.932C12.3414 15.7043 12.4808 15.4881 12.5729 15.2835C12.665 15.0788 12.7111 14.8614 12.7111 14.6311C12.7111 14.3702 12.6497 14.1451 12.5269 13.9557C12.4041 13.7639 12.2365 13.6168 12.0242 13.5144C11.8118 13.4096 11.5726 13.3571 11.3066 13.3571C11.0252 13.3571 10.7796 13.4147 10.5698 13.5298C10.36 13.6449 10.1988 13.8074 10.0863 14.0171C9.97371 14.2269 9.91743 14.4725 9.91743 14.7539H8.7854C8.7854 14.2755 8.89541 13.8573 9.11542 13.4991C9.33543 13.1409 9.6373 12.8634 10.021 12.6664C10.4048 12.4668 10.841 12.3671 11.3296 12.3671C11.8233 12.3671 12.2582 12.4656 12.6343 12.6625C13.0129 12.857 13.3084 13.123 13.5207 13.4607C13.7331 13.7959 13.8392 14.1745 13.8392 14.5966C13.8392 14.8882 13.7842 15.1735 13.6742 15.4523C13.5668 15.7312 13.3788 16.042 13.1101 16.3848C12.8415 16.7251 12.468 17.1382 11.9896 17.6243L10.4278 19.259V19.3166H13.9659V20.3335H8.79308ZM18.164 20.4409C17.8135 20.4358 17.4681 20.3719 17.1279 20.2491C16.7902 20.1263 16.4832 19.9216 16.2069 19.6351C15.9306 19.3486 15.7093 18.9635 15.5431 18.48C15.3793 17.9965 15.2975 17.3928 15.2975 16.6688C15.2975 15.9832 15.3653 15.3743 15.5008 14.8422C15.639 14.3101 15.8373 13.8611 16.0956 13.4953C16.354 13.1269 16.6661 12.8467 17.032 12.6549C17.3978 12.463 17.8084 12.3671 18.2638 12.3671C18.7319 12.3671 19.1476 12.4592 19.5109 12.6434C19.8742 12.8276 20.1684 13.0821 20.3935 13.407C20.6212 13.7319 20.7657 14.1016 20.8271 14.516H19.6567C19.5774 14.1885 19.4201 13.9212 19.1847 13.714C18.9494 13.5068 18.6424 13.4032 18.2638 13.4032C17.6882 13.4032 17.2392 13.6539 16.9168 14.1553C16.5971 14.6567 16.4359 15.3538 16.4333 16.2467H16.4909C16.6265 16.0241 16.7928 15.8348 16.9897 15.6787C17.1893 15.5201 17.4119 15.3986 17.6575 15.3142C17.9056 15.2272 18.1665 15.1837 18.4403 15.1837C18.8957 15.1837 19.3075 15.295 19.6759 15.5176C20.0469 15.7376 20.3424 16.042 20.5624 16.4309C20.7824 16.8197 20.8924 17.2649 20.8924 17.7663C20.8924 18.2677 20.7785 18.7218 20.5509 19.1286C20.3257 19.5353 20.0085 19.8577 19.5992 20.0956C19.1899 20.3309 18.7115 20.4461 18.164 20.4409ZM18.1602 19.4432C18.462 19.4432 18.7319 19.369 18.9698 19.2207C19.2078 19.0723 19.3958 18.8727 19.5339 18.622C19.6721 18.3713 19.7412 18.0912 19.7412 17.7816C19.7412 17.4798 19.6734 17.2047 19.5378 16.9566C19.4047 16.7084 19.2206 16.5115 18.9852 16.3656C18.7524 16.2198 18.4863 16.1469 18.187 16.1469C17.9593 16.1469 17.7483 16.1904 17.5538 16.2774C17.362 16.3644 17.1931 16.4846 17.0473 16.6381C16.9015 16.7916 16.7864 16.9681 16.7019 17.1676C16.6201 17.3646 16.5791 17.5731 16.5791 17.7931C16.5791 18.0873 16.6469 18.3598 16.7825 18.6105C16.9207 18.8612 17.1087 19.0633 17.3466 19.2168C17.5871 19.3678 17.8583 19.4432 18.1602 19.4432Z" fill="#3C3C3C"/>
<path d="M23.1503 8.47412L22.4223 8.60306C22.3919 8.50994 22.3435 8.4213 22.2773 8.33713C22.2128 8.25296 22.125 8.18402 22.014 8.13029C21.903 8.07657 21.7642 8.04971 21.5977 8.04971C21.3702 8.04971 21.1804 8.10074 21.0282 8.20282C20.876 8.3031 20.7999 8.43294 20.7999 8.59232C20.7999 8.73021 20.8509 8.84123 20.953 8.9254C21.055 9.00957 21.2198 9.07851 21.4472 9.13224L22.1027 9.28266C22.4823 9.37041 22.7652 9.50562 22.9515 9.68827C23.1377 9.87093 23.2308 10.1082 23.2308 10.4001C23.2308 10.6472 23.1592 10.8675 23.016 11.0609C22.8745 11.2525 22.6766 11.403 22.4223 11.5122C22.1698 11.6214 21.877 11.676 21.5439 11.676C21.0819 11.676 20.7049 11.5776 20.4131 11.3806C20.1212 11.1818 19.9421 10.8997 19.8758 10.5344L20.6521 10.4162C20.7005 10.6186 20.7999 10.7717 20.9503 10.8756C21.1007 10.9776 21.2968 11.0287 21.5386 11.0287C21.8018 11.0287 22.0122 10.9741 22.1698 10.8648C22.3274 10.7538 22.4062 10.6186 22.4062 10.4592C22.4062 10.3303 22.3578 10.2219 22.2611 10.1342C22.1662 10.0464 22.0203 9.98017 21.8233 9.9354L21.1249 9.78229C20.7399 9.69454 20.4551 9.55486 20.2707 9.36325C20.088 9.17163 19.9967 8.92898 19.9967 8.63529C19.9967 8.39175 20.0647 8.17864 20.2008 7.99598C20.3369 7.81332 20.525 7.67096 20.7649 7.56888C21.0049 7.46502 21.2798 7.41308 21.5896 7.41308C22.0355 7.41308 22.3865 7.50979 22.6426 7.70319C22.8987 7.8948 23.0679 8.15178 23.1503 8.47412Z" fill="#3C3C3C"/>
</svg>
