<svg width="31" height="31" viewBox="0 0 31 31" fill="none" xmlns="http://www.w3.org/2000/svg">
<g opacity="0.3">
<circle cx="15.5" cy="15.5" r="15.5" fill="#707070"/>
<path d="M17.4673 8.45455L17.233 18.7244H14.946L14.7188 8.45455H17.4673ZM16.0895 23.1562C15.6586 23.1562 15.2893 23.0047 14.9815 22.7017C14.6785 22.3987 14.527 22.0294 14.527 21.5938C14.527 21.1676 14.6785 20.803 14.9815 20.5C15.2893 20.197 15.6586 20.0455 16.0895 20.0455C16.5109 20.0455 16.8755 20.197 17.1832 20.5C17.4957 20.803 17.652 21.1676 17.652 21.5938C17.652 21.8826 17.5786 22.1454 17.4318 22.3821C17.2898 22.6188 17.1004 22.8082 16.8636 22.9503C16.6316 23.0876 16.3736 23.1562 16.0895 23.1562Z" fill="black"/>
</g>
</svg>
