<svg width="31" height="32" viewBox="0 0 31 32" fill="none" xmlns="http://www.w3.org/2000/svg">
<circle cx="15.5" cy="15.5459" r="15.5" fill="#F8C108"/>
<path d="M17.4673 8.50044L17.233 18.7703H14.946L14.7188 8.50044H17.4673ZM16.0895 23.2021C15.6586 23.2021 15.2893 23.0506 14.9815 22.7476C14.6785 22.4446 14.527 22.0753 14.527 21.6396C14.527 21.2135 14.6785 20.8489 14.9815 20.5459C15.2893 20.2429 15.6586 20.0914 16.0895 20.0914C16.5109 20.0914 16.8755 20.2429 17.1832 20.5459C17.4957 20.8489 17.652 21.2135 17.652 21.6396C17.652 21.9285 17.5786 22.1913 17.4318 22.428C17.2898 22.6647 17.1004 22.8541 16.8636 22.9962C16.6316 23.1335 16.3736 23.2021 16.0895 23.2021Z" fill="white"/>
</svg>
