<svg xmlns:xlink="http://www.w3.org/1999/xlink" xmlns="http://www.w3.org/2000/svg" width="63" height="40" viewBox="0 0 63 40" fill="none" id="svg612462035_14139">
<path fill-rule="evenodd" clip-rule="evenodd" d="M22.911 20.4524C22.5571 20.4524 22.2691 20.1643 22.2691 19.8077C22.2691 19.451 22.5571 19.163 22.911 19.163H25.3719L27.4075 13.3963C27.5254 13.0616 27.8931 12.8861 28.2278 13.004C28.4445 13.0808 28.5954 13.2646 28.642 13.4731L30.4774 21.8461L31.0233 18.3236C31.0727 18.0081 31.347 17.7804 31.657 17.7804V17.7777H33.2043L34.5157 12.8533C34.6062 12.5103 34.9574 12.3046 35.3003 12.3951C35.5609 12.4637 35.742 12.6859 35.7749 12.9383L36.7735 21.0367L37.2481 19.6046C37.3387 19.333 37.5883 19.1629 37.8599 19.1629H40.0382C40.3949 19.1629 40.6829 19.451 40.6829 19.8076C40.6829 20.1642 40.3949 20.4523 40.0382 20.4523H38.3236L37.1028 24.1477C37.0314 24.3836 36.8257 24.5702 36.565 24.6003C36.2111 24.6442 35.8902 24.3918 35.849 24.0379L34.9053 16.3862L34.3319 18.5425C34.2743 18.8388 34.0137 19.0638 33.7009 19.0638L32.2085 19.0693L31.2264 25.3901C31.2072 25.6672 31.0069 25.9114 30.7216 25.9717C30.3759 26.0458 30.033 25.8263 29.9562 25.4779L27.8684 15.9552L26.4474 19.9853L22.911 20.4524ZM60.622 39.0883C59.98 39.0883 59.3957 38.8276 58.9759 38.4052C58.7016 38.1308 58.4958 37.7851 58.3833 37.4011L48.7785 37.4038V37.4011C48.6111 37.4011 48.4438 37.3352 48.3176 37.2063L46.7017 35.5438C46.4548 35.2886 46.4603 34.8826 46.7154 34.6357C46.9706 34.3887 47.3766 34.3942 47.6235 34.6494L49.0501 36.1171H58.3859C58.4957 35.733 58.7042 35.39 58.9785 35.1157H58.9812C59.4037 34.6932 59.9853 34.4326 60.6245 34.4326C61.2665 34.4326 61.8481 34.6932 62.2706 35.1157C62.6931 35.5382 62.9537 36.1198 62.9537 36.7618C62.9537 37.4038 62.6931 37.9854 62.2706 38.4051V38.4078C61.8481 38.8276 61.264 39.0883 60.622 39.0883ZM31.476 39.6315C31.9533 39.6315 32.4334 39.6123 32.919 39.5793C33.4046 39.5437 33.882 39.4915 34.3593 39.423C34.6254 39.3846 34.8477 39.1815 34.8998 38.9045L35.5116 35.5932C36.3949 35.3902 37.2564 35.1158 38.0849 34.7729C38.9244 34.4245 39.7254 34.0102 40.4854 33.5301L43.067 35.3051C43.2947 35.4752 43.6211 35.4779 43.8543 35.2914C44.5073 34.7701 45.1273 34.205 45.7089 33.6042C46.2822 33.0144 46.8199 32.3834 47.3193 31.7195C47.4976 31.5028 47.5195 31.1873 47.3522 30.9458L45.6074 28.4081C46.0847 27.6482 46.5017 26.8444 46.8501 26.0076C47.193 25.1791 47.4701 24.3205 47.6704 23.437L50.6141 22.8911C50.8829 22.8417 51.0997 22.625 51.1353 22.3397C51.1902 21.9117 51.2286 21.492 51.2561 21.0832C51.2835 20.6497 51.2972 20.2272 51.2972 19.8157C51.2972 19.4042 51.2835 18.9817 51.2561 18.5482C51.2314 18.1449 51.193 17.7334 51.1381 17.3164C51.1134 17.0366 50.9049 16.7924 50.6141 16.7403L47.6704 16.1944C47.4674 15.311 47.1903 14.4495 46.8501 13.6238C46.5017 12.7843 46.0875 11.9832 45.6074 11.2233L47.3522 8.68559C47.5031 8.46337 47.5086 8.1616 47.3385 7.93664C46.8337 7.2645 46.2905 6.62802 45.7116 6.03C45.1273 5.42919 44.5101 4.86402 43.8544 4.34283C43.6376 4.17 43.3276 4.15079 43.089 4.3154L40.4883 6.10412C39.7284 5.62676 38.9245 5.20979 38.0877 4.86137C37.2592 4.51845 36.4006 4.24136 35.5144 4.04107L34.9081 0.762669C34.8724 0.482839 34.653 0.249651 34.3622 0.208502C33.8876 0.139917 33.4074 0.0850493 32.9246 0.0521249C32.439 0.01646 31.9562 0 31.4816 0C31.0042 0 30.5214 0.0192032 30.0385 0.0521249C29.5557 0.0877891 29.0756 0.139914 28.6009 0.208502C28.3348 0.24691 28.1099 0.449922 28.0605 0.727006L27.4487 4.03828C26.5653 4.24129 25.7039 4.51563 24.8754 4.85858C24.0386 5.20699 23.2348 5.62122 22.4749 6.10132L19.8933 4.32636C19.6656 4.15627 19.3391 4.15353 19.1059 4.34008C18.453 4.86407 17.833 5.42649 17.2514 6.02725C16.678 6.61708 16.1403 7.24808 15.641 7.91198C15.4627 8.12871 15.4407 8.4442 15.6081 8.68565L17.3529 11.2233C16.8755 11.9832 16.4586 12.7871 16.1101 13.6238C15.7672 14.4523 15.4901 15.311 15.2898 16.1972L12.3462 16.7431C12.0773 16.7925 11.8606 17.0092 11.8249 17.2945C11.7701 17.7225 11.7289 18.1422 11.7042 18.5511C11.6768 18.9845 11.6631 19.407 11.6631 19.8185C11.6631 20.23 11.6768 20.6525 11.7042 21.086C11.7289 21.4893 11.77 21.898 11.8222 22.3178C11.8469 22.5976 12.0554 22.839 12.3462 22.8939L15.2898 23.4398C15.4929 24.3232 15.7699 25.1847 16.1101 26.0132C16.4586 26.8499 16.8728 27.6537 17.3529 28.4137L15.6081 30.9514C15.4572 31.1736 15.4517 31.4753 15.6218 31.7003C16.1266 32.3724 16.6698 33.0089 17.2514 33.6069C17.833 34.2078 18.4529 34.7729 19.1059 35.2941C19.3199 35.4669 19.6326 35.4862 19.8713 35.3215L22.472 33.5328C23.2319 34.0102 24.0358 34.4272 24.8725 34.7756C25.701 35.1185 26.5597 35.3956 27.4431 35.5959L28.0494 38.8715C28.0851 39.1514 28.3046 39.3846 28.5954 39.4257C29.0727 39.4943 29.5528 39.5492 30.0357 39.5821C30.5185 39.6123 30.9986 39.6315 31.476 39.6315ZM30.1235 38.2954C30.5597 38.3284 31.0123 38.3448 31.476 38.3448C31.9396 38.3448 32.3895 38.3284 32.8285 38.2954C33.1275 38.2735 33.4266 38.2461 33.7228 38.2104L34.3209 34.9841C34.3483 34.7125 34.5513 34.4766 34.8339 34.419C35.7914 34.2269 36.7159 33.9444 37.591 33.5822C38.4881 33.2091 39.3414 32.7537 40.1424 32.2215C40.3537 32.0816 40.639 32.0761 40.8612 32.2297L43.418 33.9883C43.8954 33.585 44.3535 33.157 44.7897 32.7098C45.2286 32.2572 45.6429 31.7826 46.0324 31.2915L44.326 28.8087C44.1669 28.5974 44.1477 28.3012 44.3013 28.0652C44.8336 27.2669 45.2917 26.4137 45.6648 25.5139C46.0297 24.6387 46.3095 23.7142 46.5043 22.7567H46.507C46.5564 22.5071 46.7539 22.3013 47.02 22.2519L49.9198 21.7142C49.9445 21.481 49.961 21.2451 49.9774 21.0009C50.0021 20.6224 50.0131 20.2273 50.0131 19.8131C50.0131 19.4015 49.9994 19.0038 49.9774 18.6252C49.961 18.381 49.9418 18.1451 49.9198 17.9119L47.0694 17.3824C46.7978 17.355 46.5619 17.152 46.5043 16.8694C46.3122 15.9119 46.0297 14.9874 45.6648 14.1122C45.2944 13.2152 44.8363 12.3619 44.3013 11.5609C44.1614 11.3496 44.1559 11.0643 44.3096 10.8421L46.0324 8.33466C45.6428 7.84359 45.2286 7.37172 44.7897 6.91908C44.3535 6.46916 43.8953 6.04392 43.418 5.63792L40.8858 7.38C40.6745 7.53912 40.3782 7.55833 40.145 7.4047C39.3467 6.87247 38.4935 6.41429 37.5937 6.04396C36.7185 5.67909 35.794 5.39926 34.8365 5.20449V5.20174C34.5869 5.15236 34.3811 4.95484 34.3317 4.68872L33.7227 1.41032C33.4292 1.37466 33.1301 1.34723 32.8311 1.32528C32.3922 1.2951 31.9423 1.27864 31.4786 1.27864C31.0149 1.27864 30.5623 1.2951 30.1261 1.32802C29.8271 1.34997 29.528 1.37741 29.2345 1.41307L28.6364 4.63936C28.609 4.91096 28.406 5.14689 28.1234 5.2045C27.1659 5.39654 26.2414 5.67911 25.3663 6.04398C24.4692 6.41433 23.616 6.8725 22.8149 7.40471C22.6037 7.54463 22.3183 7.55011 22.0962 7.39648L19.5393 5.63796C19.0592 6.04124 18.6011 6.46921 18.1676 6.91638C17.7287 7.36904 17.3145 7.84364 16.9249 8.3347L18.634 10.8203C18.7931 11.0315 18.8124 11.3305 18.6587 11.561C18.1265 12.3593 17.6683 13.2126 17.298 14.1124C16.9331 14.9875 16.6533 15.912 16.4585 16.8695H16.4558C16.4064 17.1192 16.2089 17.3249 15.9427 17.3743L13.043 17.912C13.0183 18.1452 13.0018 18.3811 12.9854 18.6253C12.9607 19.0039 12.9497 19.3989 12.9497 19.8132C12.9497 20.2247 12.9634 20.6224 12.9854 21.0011C13.0018 21.2452 13.021 21.4811 13.043 21.7143L15.8934 22.2411C16.165 22.2685 16.4009 22.4715 16.4585 22.7541C16.6506 23.7115 16.9331 24.6361 17.298 25.5112C17.6711 26.4083 18.1265 27.2615 18.6587 28.0626C18.7986 28.2738 18.8041 28.5591 18.6505 28.7813L16.9277 31.2888C17.3172 31.7799 17.7314 32.2545 18.1704 32.7071C18.6039 33.1543 19.062 33.5823 19.5421 33.9855L22.0743 32.2435C22.2855 32.0843 22.5818 32.0651 22.8177 32.2188C23.6161 32.751 24.4693 33.2092 25.3691 33.5795C26.2443 33.9444 27.1688 34.2242 28.1263 34.419V34.4217C28.3759 34.4711 28.5817 34.6686 28.631 34.9347L29.2373 38.2104C29.5254 38.2433 29.8244 38.2735 30.1235 38.2954ZM9.57235 19.1658C9.92899 19.1658 10.217 19.4539 10.217 19.8105C10.217 20.1672 9.92899 20.4552 9.57235 20.4552H4.97163C4.86189 20.8393 4.65613 21.1823 4.37905 21.4593H4.37631C3.95382 21.8818 3.37221 22.1424 2.73303 22.1424C2.09107 22.1424 1.50946 21.8818 1.08695 21.4593C0.664465 21.0341 0.403836 20.4525 0.403836 19.8105C0.403836 19.1685 0.664458 18.5869 1.08695 18.1672V18.1645C1.50943 17.742 2.09105 17.4814 2.73303 17.4814C3.37499 17.4814 3.9566 17.742 4.37631 18.1645L4.37905 18.1672C4.65339 18.4416 4.85915 18.7845 4.96888 19.1686L9.57235 19.1658ZM16.2498 4.07731C16.4967 4.33245 16.4912 4.73848 16.2361 4.9854C15.981 5.23233 15.5749 5.22682 15.328 4.97169L13.9015 3.50399L4.56841 3.50673C4.45867 3.89082 4.25291 4.23377 3.97583 4.51083H3.97309C3.5506 4.93332 2.96899 5.19394 2.32981 5.19394C1.68786 5.19394 1.10624 4.93332 0.683729 4.51083C0.261245 4.08835 0.000616531 3.50673 0.000616531 2.86475C0.000616531 2.22279 0.261238 1.64118 0.683729 1.22147V1.21873C1.10621 0.796247 1.68783 0.535618 2.32981 0.535618C2.9718 0.535618 3.55338 0.79624 3.97309 1.21873L3.97583 1.22147C4.25017 1.49581 4.45592 1.83875 4.56566 2.22283H14.1705V2.22558C14.3379 2.22558 14.5052 2.29142 14.6314 2.42036L16.2498 4.07731ZM3.06737 2.12404L3.06463 2.12129C2.87534 1.93474 2.61745 1.81952 2.32938 1.81952C2.0413 1.81952 1.7807 1.93474 1.59413 2.12403L1.59138 2.12129C1.40483 2.31058 1.28687 2.57121 1.28687 2.85928C1.28687 3.14734 1.40209 3.40796 1.59138 3.59453C1.78068 3.78383 2.0413 3.89905 2.32664 3.89905C2.6147 3.89905 2.87532 3.78383 3.06463 3.59453L3.06188 3.59179C3.24569 3.40798 3.36366 3.1501 3.3664 2.8703V2.84287C3.3664 2.56578 3.25118 2.31056 3.06737 2.12404ZM3.47066 19.0756L3.46791 19.0729C3.27862 18.8864 3.02074 18.7711 2.72992 18.7711C2.44186 18.7711 2.18124 18.8863 1.99467 19.0756L1.99193 19.0729C1.80538 19.2622 1.69015 19.5228 1.69015 19.8109C1.69015 20.099 1.80812 20.3596 1.99466 20.5461C2.18396 20.7354 2.44184 20.8507 2.72992 20.8507C3.01798 20.8507 3.2786 20.7354 3.46791 20.5461L3.46517 20.5434C3.64897 20.3596 3.76694 20.1017 3.76968 19.8219L3.77243 19.8109V19.7972C3.76968 19.5147 3.65447 19.2594 3.47066 19.0756ZM15.3276 34.6501C15.5745 34.395 15.9805 34.3895 16.2357 34.6364C16.4909 34.8833 16.4963 35.2893 16.2494 35.5445L14.6335 37.207C14.5073 37.3359 14.34 37.4018 14.1726 37.4018V37.4045H4.56779C4.45805 37.7886 4.2523 38.1315 3.97521 38.4086H3.97247C3.54999 38.8311 2.96837 39.0917 2.3292 39.0917C1.68724 39.0917 1.10562 38.8311 0.683113 38.4086V38.4059C0.260629 37.9834 0 37.4018 0 36.7626C0 36.1206 0.260622 35.539 0.683113 35.1165C1.1056 34.694 1.68721 34.4334 2.3292 34.4334C2.97118 34.4334 3.55277 34.694 3.97247 35.1165H3.97521C4.24955 35.3908 4.45531 35.7338 4.56779 36.1179H13.9036L15.3276 34.6501ZM2.32918 37.8023C2.61724 37.8023 2.87786 37.6871 3.06717 37.4978L3.06443 37.495C3.24824 37.3112 3.3662 37.0533 3.36894 36.7735V36.7461C3.3662 36.4635 3.25098 36.2084 3.06443 36.0246L3.06717 36.0219C2.87788 35.8353 2.61725 35.7174 2.32918 35.7174C2.0411 35.7174 1.7805 35.8353 1.59393 36.0219C1.40463 36.2112 1.28941 36.4691 1.28941 36.7571C1.28941 37.0452 1.40463 37.3058 1.59393 37.4951L1.59667 37.4924C1.78048 37.6844 2.0411 37.8023 2.32918 37.8023ZM31.4756 10.0578C28.7816 10.0578 26.3454 11.1497 24.5814 12.9137C22.8146 14.6804 21.7227 17.1166 21.7227 19.8106C21.7227 22.5046 22.8146 24.9408 24.5786 26.7048C26.3426 28.4688 28.7816 29.5607 31.4728 29.5607C34.1668 29.5607 36.603 28.4688 38.3698 26.7048C40.1338 24.9408 41.2256 22.5019 41.2256 19.8106C41.2256 17.1166 40.1338 14.6804 38.3698 12.9137C36.6058 11.1497 34.1696 10.0578 31.4756 10.0578ZM23.6707 12.0056C21.6735 14.0028 20.4362 16.7626 20.4362 19.8104C20.4362 22.8582 21.6735 25.6182 23.6707 27.6152C25.668 29.6123 28.4278 30.8497 31.4756 30.8497C34.5233 30.8497 37.2833 29.6152 39.2804 27.6152C41.2776 25.618 42.5149 22.8582 42.5149 19.8104C42.5149 16.7626 41.2804 14.0026 39.2804 12.0056C37.2831 10.0084 34.5233 8.77109 31.4756 8.77109C28.4278 8.77109 25.6678 10.0056 23.6707 12.0056ZM53.3793 20.4551C53.0227 20.4551 52.7346 20.1671 52.7346 19.8104C52.7346 19.4538 53.0227 19.1657 53.3793 19.1657H57.9828C58.0925 18.7844 58.2983 18.4387 58.5726 18.1644V18.1616C58.9951 17.7391 59.5767 17.4785 60.2187 17.4785C60.8607 17.4785 61.4423 17.7391 61.8648 18.1616V18.1644C62.2873 18.5869 62.5479 19.1685 62.5479 19.8076C62.5479 20.4496 62.2873 21.0312 61.8648 21.4537C61.4423 21.8762 60.8607 22.1368 60.2187 22.1368C59.5767 22.1368 58.9951 21.8762 58.5754 21.4537L58.5727 21.4565C58.2983 21.1821 58.0926 20.8392 57.9801 20.4524H53.3794L53.3793 20.4551ZM47.6236 4.97122C47.3767 5.22635 46.9707 5.23184 46.7156 4.98493C46.4604 4.73803 46.4549 4.332 46.7018 4.07684L48.3177 2.41432C48.4439 2.28539 48.6113 2.21954 48.7786 2.21954V2.2168H58.3835C58.4932 1.83272 58.699 1.48977 58.9733 1.21544V1.2127C59.3958 0.790213 59.9774 0.529585 60.6194 0.529585C61.2613 0.529585 61.843 0.790206 62.2655 1.2127V1.21544C62.688 1.63793 62.9486 2.21954 62.9486 2.85872C62.9486 3.50067 62.688 4.08229 62.2655 4.5048C61.843 4.92728 61.2614 5.18791 60.6194 5.18791C59.9774 5.18791 59.3958 4.92729 58.9761 4.5048V4.50754C58.7018 4.2332 58.496 3.88753 58.3835 3.50345H49.0477L47.6236 4.97122ZM60.6221 1.81902C60.334 1.81902 60.0734 1.93424 59.8868 2.12354L59.8841 2.12079C59.7003 2.3046 59.5851 2.56249 59.5796 2.84502V2.87245C59.5823 3.15502 59.6975 3.41017 59.8841 3.59394L59.8813 3.59668C60.0706 3.78324 60.3313 3.9012 60.6193 3.9012C60.9074 3.9012 61.168 3.78598 61.3546 3.59668C61.5439 3.40739 61.6591 3.14951 61.6591 2.86143C61.6591 2.57337 61.5439 2.31275 61.3546 2.12344L61.3518 2.12618C61.1708 1.93689 60.9102 1.81902 60.6221 1.81902ZM60.2215 18.7704C59.9335 18.7704 59.6728 18.8856 59.4835 19.0749L59.4808 19.0721C59.297 19.2559 59.1818 19.5138 59.1763 19.7964L59.179 19.8101V19.8238C59.1818 20.1064 59.297 20.3615 59.4835 20.5453L59.4808 20.548C59.6701 20.7346 59.9307 20.8525 60.2188 20.8525C60.5068 20.8525 60.7675 20.7373 60.954 20.548C61.1433 20.3587 61.2585 20.1008 61.2585 19.8128C61.2585 19.5247 61.1433 19.2641 60.954 19.0748L60.9513 19.0775C60.7675 18.8855 60.5069 18.7704 60.2215 18.7704ZM59.8868 37.4972C60.0761 37.6865 60.334 37.8017 60.622 37.8017C60.9101 37.8017 61.1707 37.6838 61.3573 37.4972L61.36 37.4999C61.5466 37.3106 61.6646 37.05 61.6646 36.762C61.6646 36.4739 61.5493 36.2133 61.36 36.0267C61.1708 35.8374 60.9101 35.7222 60.6248 35.7222C60.3367 35.7222 60.0761 35.8374 59.8868 36.0267L59.8895 36.0294C59.7057 36.2133 59.5878 36.4711 59.585 36.7509V36.7784C59.585 37.0554 59.7002 37.3107 59.8868 37.4972Z" fill="black"></path>
</svg>