<svg width="32" height="46" viewBox="0 0 32 46" fill="none" xmlns="http://www.w3.org/2000/svg">
<path d="M26.2471 10.2222L26.2216 2.55556C26.2216 1.15 25.0716 0 23.666 0C22.2605 0 21.1105 1.15 21.1105 2.55556V10.2222H10.8882V2.55556C10.8882 1.15 9.73824 0 8.33268 0C6.92713 0 5.77713 1.15 5.77713 2.55556V10.2222H5.75157C2.96601 10.2222 0.666016 12.5222 0.666016 15.3078V27.2167C0.666016 28.5711 1.20268 29.8744 2.14824 30.82L9.61046 38.3333V43.4444C9.61046 44.85 10.7605 46 12.166 46H19.8327C21.2382 46 22.3882 44.85 22.3882 43.4444V38.3333L29.8505 30.8711C30.796 29.9 31.3327 28.5967 31.3327 27.2422V15.3078C31.3327 12.4967 29.0582 10.2222 26.2471 10.2222Z" fill="#3C3C3C"/>
</svg>
