<svg width="65" height="65" viewBox="0 0 65 65" fill="none" xmlns="http://www.w3.org/2000/svg">
<path d="M50.7812 22.3438V50.7812C50.7812 51.8587 50.3532 52.892 49.5914 53.6539C48.8295 54.4157 47.7962 54.8438 46.7188 54.8438H10.1562C9.07881 54.8438 8.0455 54.4157 7.28363 53.6539C6.52176 52.892 6.09375 51.8587 6.09375 50.7812V22.3438C6.09375 21.2663 6.52176 20.233 7.28363 19.4711C8.0455 18.7093 9.07881 18.2812 10.1562 18.2812H46.7188C47.7962 18.2812 48.8295 18.7093 49.5914 19.4711C50.3532 20.233 50.7812 21.2663 50.7812 22.3438ZM54.8438 10.1562H16.25C15.7113 10.1562 15.1946 10.3703 14.8137 10.7512C14.4328 11.1321 14.2188 11.6488 14.2188 12.1875C14.2188 12.7262 14.4328 13.2429 14.8137 13.6238C15.1946 14.0047 15.7113 14.2188 16.25 14.2188H54.8438V44.6875C54.8438 45.2262 55.0578 45.7429 55.4387 46.1238C55.8196 46.5047 56.3363 46.7188 56.875 46.7188C57.4137 46.7188 57.9304 46.5047 58.3113 46.1238C58.6922 45.7429 58.9062 45.2262 58.9062 44.6875V14.2188C58.9062 13.1413 58.4782 12.108 57.7164 11.3461C56.9545 10.5843 55.9212 10.1563 54.8438 10.1562Z" fill="#6094EA"/>
</svg>
