<svg width="50" height="50" viewBox="0 0 50 50" fill="none" xmlns="http://www.w3.org/2000/svg">
<path d="M21.4587 16.0417C21.2657 16.2323 21.1124 16.4594 21.0078 16.7098C20.9033 16.9601 20.8494 17.2287 20.8494 17.5C20.8494 17.7713 20.9033 18.0399 21.0078 18.2902C21.1124 18.5406 21.2657 18.7677 21.4587 18.9583L25.417 22.9167H6.25033C5.10449 22.9167 4.16699 23.8542 4.16699 25C4.16699 26.1458 5.10449 27.0833 6.25033 27.0833H25.417L21.4587 31.0417C21.2657 31.2323 21.1124 31.4594 21.0078 31.7098C20.9033 31.9601 20.8494 32.2287 20.8494 32.5C20.8494 32.7713 20.9033 33.0399 21.0078 33.2902C21.1124 33.5406 21.2657 33.7677 21.4587 33.9583C22.2712 34.7708 23.5628 34.7708 24.3753 33.9583L31.8545 26.4792C32.0476 26.2864 32.2008 26.0575 32.3054 25.8055C32.4099 25.5534 32.4637 25.2833 32.4637 25.0104C32.4637 24.7376 32.4099 24.4674 32.3054 24.2154C32.2008 23.9633 32.0476 23.7344 31.8545 23.5417L24.3753 16.0417C24.1847 15.8487 23.9576 15.6954 23.7072 15.5909C23.4569 15.4863 23.1883 15.4324 22.917 15.4324C22.6457 15.4324 22.3771 15.4863 22.1268 15.5909C21.8764 15.6954 21.6493 15.8487 21.4587 16.0417ZM41.667 39.5833H27.0837C25.9378 39.5833 25.0003 40.5208 25.0003 41.6667C25.0003 42.8125 25.9378 43.75 27.0837 43.75H41.667C43.9587 43.75 45.8337 41.875 45.8337 39.5833V10.4167C45.8337 8.125 43.9587 6.25 41.667 6.25H27.0837C25.9378 6.25 25.0003 7.1875 25.0003 8.33333C25.0003 9.47917 25.9378 10.4167 27.0837 10.4167H41.667V39.5833Z" fill="#3C3C3C"/>
</svg>
