<svg width="35" height="36" viewBox="0 0 35 36" fill="none" xmlns="http://www.w3.org/2000/svg">
<path fill-rule="evenodd" clip-rule="evenodd" d="M18.2687 35.1032L18.2509 35.1064L18.1364 35.1629L18.1041 35.1693L18.0815 35.1629L17.967 35.1064C17.9498 35.101 17.9369 35.1037 17.9283 35.1145L17.9218 35.1306L17.8944 35.8211L17.9024 35.8534L17.9186 35.8744L18.0864 35.9937L18.1106 36.0002L18.1299 35.9937L18.2977 35.8744L18.3171 35.8485L18.3235 35.8211L18.2961 35.1322C18.2918 35.115 18.2826 35.1053 18.2687 35.1032ZM18.6962 34.9209L18.6752 34.9241L18.3768 35.0741L18.3606 35.0903L18.3558 35.108L18.3848 35.8018L18.3929 35.8211L18.4058 35.8324L18.7301 35.9825C18.7505 35.9878 18.7661 35.9835 18.7769 35.9695L18.7833 35.947L18.7285 34.9564C18.7231 34.937 18.7123 34.9252 18.6962 34.9209ZM17.5427 34.9241C17.5356 34.9198 17.5271 34.9184 17.5189 34.9202C17.5108 34.922 17.5037 34.9269 17.4991 34.9338L17.4894 34.9564L17.4346 35.947C17.4356 35.9663 17.4448 35.9792 17.462 35.9857L17.4862 35.9825L17.8105 35.8324L17.8266 35.8195L17.8331 35.8018L17.8605 35.108L17.8557 35.0887L17.8395 35.0725L17.5427 34.9241Z" fill="#3C3C3C"/>
<path fill-rule="evenodd" clip-rule="evenodd" d="M19.7321 2.42001C19.7321 1.77818 19.4772 1.16264 19.0233 0.708803C18.5695 0.254964 17.9539 0 17.3121 0C16.6703 0 16.0548 0.254964 15.6009 0.708803C15.1471 1.16264 14.8921 1.77818 14.8921 2.42001V18.5534C14.8921 19.1952 15.1471 19.8107 15.6009 20.2646C16.0548 20.7184 16.6703 20.9734 17.3121 20.9734C17.9539 20.9734 18.5695 20.7184 19.0233 20.2646C19.4772 19.8107 19.7321 19.1952 19.7321 18.5534V2.42001ZM10.6232 6.85668C10.8881 6.68073 11.1156 6.45433 11.293 6.19042C11.4703 5.92652 11.5939 5.63026 11.6568 5.31858C11.7196 5.00689 11.7205 4.68588 11.6593 4.37387C11.598 4.06186 11.476 3.76497 11.3 3.50013C11.1241 3.2353 10.8977 3.00772 10.6338 2.83038C10.3698 2.65304 10.0736 2.52942 9.76191 2.46657C9.45022 2.40373 9.12921 2.40289 8.8172 2.4641C8.50519 2.52532 8.2083 2.64738 7.94346 2.82334C5.61378 4.36808 3.70299 6.46581 2.3818 8.92916C1.0606 11.3925 0.370131 14.1448 0.372074 16.94C0.372074 26.2958 7.95637 33.8801 17.3121 33.8801C26.6679 33.8801 34.2522 26.2958 34.2522 16.94C34.2522 11.0449 31.24 5.85641 26.6808 2.82334C26.1459 2.4682 25.4919 2.34007 24.8626 2.46714C24.2332 2.59422 23.6802 2.96609 23.325 3.50094C22.9699 4.0358 22.8418 4.68982 22.9688 5.31915C23.0959 5.94847 23.4678 6.50154 24.0026 6.85668C26.1687 8.29359 27.8144 10.3898 28.6962 12.835C29.578 15.2802 29.649 17.9443 28.8986 20.433C28.1482 22.9216 26.6163 25.1025 24.5298 26.6526C22.4433 28.2028 19.9131 29.0398 17.3137 29.0398C14.7144 29.0398 12.1842 28.2028 10.0977 26.6526C8.01116 25.1025 6.4793 22.9216 5.72889 20.433C4.97849 17.9443 5.04944 15.2802 5.93123 12.835C6.81302 10.3898 8.45716 8.29359 10.6232 6.85668Z" fill="#3C3C3C"/>
</svg>
